<?xml version="1.0" encoding="utf-8"?>
<!-- Generator: Adobe Illustrator 22.1.0, SVG Export Plug-In . SVG Version: 6.00 Build 0)  -->
<svg version="1.1" id="Layer_1" xmlns="http://www.w3.org/2000/svg" xmlns:xlink="http://www.w3.org/1999/xlink" x="0px" y="0px"
	 viewBox="0 0 150 150" style="enable-background:new 0 0 150 150;" xml:space="preserve">
<style type="text/css">
	.st0{fill:#FFFFFF;}
</style>
<g>
	<path d="M265.2,87c4.7,3.7,9.6,7.4,14.4,11.4c1.8,1.5,3.4,3.5,4.8,5.4c2.5,3.4,2.9,7.3,2,11.3c-2.3,10.6-10.9,18-22.6,19.4
		c-6.5,0.8-12.8-0.2-18.9-2.2c-2.2-0.7-3.7-0.5-5.4,1.1c-5.6,4.9-12,8.3-19.5,8.7c-3.2,0.2-6.5-0.3-10.2-0.6
		c0.3-0.2,0.2-0.2,0.2-0.2c-3.4,7.6-9,8.2-16.1,5.6c-4.8-1.7-8.6-5-11.9-8.8c-10.6-12.6-16.5-27.1-16.2-43.8c0-0.6,0-1.2,0.1-1.8
		c0.6-4.9,2.8-7.2,7.6-7.8c1.8-15.3,12.4-23.7,24.3-30.8c4.6-2.8,9.9-4.4,14.6-7c7-3.7,13.7-8,18.2-14.8c1.3-2,2.4-4.2,3.5-6.4
		c3.7-7.7,7.5-15.3,13.9-21.2c6.8-6.2,14.2-5.5,20.1,1.6c2.6,3.2,4.3,6.8,5.1,10.8c0.6,3,1,6.1,1.1,9.2c0.4,6.8-2.7,12.3-7.2,16.9
		c-3.9,4-8.2,7.8-12.3,11.7c0.1,0,0.4,0.2,0.6,0.1c11.4-3.7,22.7-7.4,33.1-13.6c1-0.6,2-1.3,3-1.9c6.6-4.4,14.2-2.8,18.5,3.9
		c4.3,6.7,3.5,15.4-2,22.4c-5.3,6.8-12.5,10.7-20.5,13.5C280,82,272.3,84.5,265.2,87z M235.2,85.9c-0.8,5.2-1.6,10.3,0.7,15.2
		c1.8,4,4.4,7.5,7.7,10.3c2.9,2.5,6,4.4,9.9,4.8c3.3,0.3,5-0.8,5.3-4c0.2-2.6,0.3-5.4-0.3-7.8c-1.7-6.7-3.9-13.3-5.8-20
		c-1.1-3.8-3.5-6.4-7-7.9c-7.1-3-14.3-5.8-22.1-6.5c-1.8-0.2-3.6-0.1-5.5-0.2c0.1-0.3,0.2-0.5,0.2-0.5c0.4-0.3,0.9-0.5,1.4-0.7
		c4-1.8,8.3-1.7,12.5-1.3c1.7,0.2,2.7-0.3,3.7-1.6c4.7-6,10-11.3,15.8-16.2c4.5-3.8,8.6-7.9,12.7-12.1c2.4-2.5,4-5.6,4.1-9
		c0.2-5-0.3-10-2.4-14.6c-1-2.1-2.6-3.9-4.2-5.6c-1.9-2-4.5-2.3-6.9-0.8c-2,1.2-4,2.6-5.3,4.5c-3.4,4.9-6.5,10.1-9.5,15.2
		c-1.8,3-3.1,6.2-4.9,9.1c-4.8,7.4-12.1,12.1-19.7,16.2c-4.4,2.4-9.2,4.1-13.7,6.4c-7.3,3.7-13.6,8.8-18.3,15.5
		c-1.9,2.8-3,6.1-4.1,9.4c-0.7,2.1,0.2,4.1,1.6,6.1c3.9,5.5,7.5,11.2,11.2,16.8c0.6,0.9,0.9,1.9,1.3,2.8c-2.5-2.4-4.5-5.1-6.8-7.5
		c-3.6-3.5-7.3-6.9-11.3-10.1c-2.1-1.6-3.2-1-4.1,1.5c-1.5,3.8-1.4,7.8-0.5,11.7c2.6,12.1,8.2,22.9,16.6,32c2.4,2.7,5.2,4.9,8.8,6
		c4,1.3,10.6-2,9.4-8c-0.4-1.9-0.8-3.9-1.5-5.7c-1.3-3.2-2.9-6.3-4.4-9.5c0.8,0.5,1.5,1.2,2,2c2.5,4,5,8.1,7.6,12.1
		c0.7,1,1.8,1.9,2.9,2.2c5,1.4,9.9,0.6,14.6-1.5c3.4-1.5,6.5-3.5,9.2-6.1c-5.5-5.8-6.4-11.3-0.4-17.4c-1.3-1.8-2.7-3.7-4.2-5.7
		c-2.7,4.4-5.3,8.7-10.6,10c-5,1.2-9.8,0.9-14.5-2.7c2-0.1,3.4-0.1,4.9-0.3c9.1-0.9,14.9-6,16.5-15c0.6-3.4,0.4-6.9,0.6-10.3
		c0-0.5,0-1.1,0-1.6c0.2-0.1,0.3-0.1,0.5-0.2c0.8,1.4,1.6,2.8,2.3,4.1C233.4,88.9,232.2,85.2,235.2,85.9z M257.9,82.4
		c0.8-0.1,1.4-0.2,2-0.4c9.7-3.2,19.5-6.3,29.1-9.8c5.6-2,10.5-5.3,14.2-10.1c3.1-4.1,4.9-8.5,3.2-13.7c-1.8-5.6-6.8-7.2-11.7-4
		c-2.3,1.5-4.7,3-7.1,4.3c-12.6,6.5-26,10.8-39.6,14.4c-3.3,0.9-4.9,3-6.7,5.5C248.7,71.2,255.3,74.3,257.9,82.4z M262,92.5
		c-0.2,0.2-0.3,0.4-0.5,0.5c0.2,0.7,0.5,1.4,0.6,2.1c0.9,5.5,2.4,10.9,2.5,16.4c0.2,7.9-5.2,11.9-12.8,10c-3.5-0.9-6.7-3.1-10.1-4.6
		c-0.6-0.3-1.6-0.7-2-0.5c-1.7,0.9-2.5,3.3-1.5,4.9c0.8,1.3,2,2.7,3.3,3.3c7.8,3.7,16,5.3,24.6,3.1c7.4-2,12.3-6.6,14.1-14.2
		c0.7-2.8,0.3-5.4-1.8-7.5c-2.7-2.7-5.3-5.5-8.2-7.9C267.7,95.9,264.8,94.3,262,92.5z"/>
	<path class="st0" d="M235.2,85.9c-3-0.6-1.8,3.1-4.1,3.4c-0.7-1.3-1.5-2.7-2.3-4.1c-0.2,0.1-0.3,0.1-0.5,0.2c0,0.5,0.1,1.1,0,1.6
		c-0.2,3.4,0,6.9-0.6,10.3c-1.5,9-7.4,14.1-16.5,15c-1.4,0.1-2.9,0.2-4.9,0.3c4.7,3.6,9.5,3.8,14.5,2.7c5.3-1.3,8-5.6,10.6-10
		c1.5,2,2.8,3.9,4.2,5.7c-6,6-5.1,11.6,0.4,17.4c-2.7,2.6-5.8,4.6-9.2,6.1c-4.7,2.1-9.6,2.9-14.6,1.5c-1.1-0.3-2.3-1.3-2.9-2.2
		c-2.6-4-5.1-8.1-7.6-12.1c-0.5-0.8-1.2-1.4-2-2c1.5,3.2,3,6.3,4.4,9.5c0.7,1.8,1.1,3.8,1.5,5.7c1.3,6-5.3,9.3-9.4,8
		c-3.5-1.2-6.3-3.4-8.8-6c-8.4-9.2-13.9-19.9-16.6-32c-0.8-3.9-1-7.9,0.5-11.7c1-2.5,2.1-3.1,4.1-1.5c3.9,3.1,7.7,6.5,11.3,10.1
		c2.4,2.3,4.3,5.1,6.8,7.5c-0.4-0.9-0.7-2-1.3-2.8c-3.7-5.6-7.3-11.3-11.2-16.8c-1.4-2-2.3-3.9-1.6-6.1c1-3.2,2.2-6.6,4.1-9.4
		c4.6-6.8,11-11.8,18.3-15.5c4.5-2.3,9.3-4,13.7-6.4c7.6-4.1,14.8-8.7,19.7-16.2c1.9-2.9,3.2-6.1,4.9-9.1c3.1-5.1,6.1-10.3,9.5-15.2
		c1.3-1.8,3.4-3.3,5.3-4.5C257.5,5.7,260,6,262,8c1.6,1.7,3.2,3.5,4.2,5.6c2.2,4.6,2.6,9.6,2.4,14.6c-0.1,3.5-1.8,6.6-4.1,9
		c-4.1,4.2-8.2,8.4-12.7,12.1c-5.8,4.9-11.1,10.2-15.8,16.2c-1,1.3-2,1.8-3.7,1.6c-4.2-0.5-8.5-0.5-12.5,1.3
		c-0.5,0.2-0.9,0.5-1.4,0.7c-0.1,0.1-0.1,0.2-0.2,0.5c1.9,0.1,3.7,0,5.5,0.2c7.8,0.8,15,3.5,22.1,6.5c3.5,1.5,6,4.1,7,7.9
		c1.9,6.7,4.1,13.3,5.8,20c0.6,2.5,0.6,5.2,0.3,7.8c-0.3,3.3-2,4.4-5.3,4c-3.9-0.4-7.1-2.3-9.9-4.8c-3.3-2.9-5.9-6.3-7.7-10.3
		C233.6,96.1,234.4,91.1,235.2,85.9z M188.5,134.9c0.7,0.6,1.4,1.3,2.1,1.8c3.3,2.3,5.9,1.4,6.5-2.6c0.4-2.5,0.3-5.3-0.4-7.8
		c-2-7.8-6.3-14.5-11.9-20.2c-1.9-2-4.2-3.7-6.5-5.2c-1.9-1.3-3.6-0.9-4.7,0.6c-2.1,2.9-0.8,8.4,2.4,10.2c-1.9-7.4-1.9-7.4-0.9-8.5
		c0.4,1.7,0.5,3.8,1.4,5.4c3.8,6.8,7.7,13.6,12,20.2c1.5,2.4,4,4.2,6.2,6.4C193.9,137,193.9,137,188.5,134.9z"/>
	<path class="st0" d="M257.9,82.4c-2.5-8.1-9.2-11.2-16.6-13.7c1.9-2.5,3.4-4.7,6.7-5.5c13.6-3.6,27-7.9,39.6-14.4
		c2.5-1.3,4.8-2.8,7.1-4.3c4.9-3.3,9.8-1.6,11.7,4c1.7,5.2,0,9.7-3.2,13.7c-3.7,4.8-8.6,8.1-14.2,10.1c-9.6,3.5-19.4,6.5-29.1,9.8
		C259.3,82.3,258.6,82.3,257.9,82.4z"/>
	<path class="st0" d="M262,92.5c2.8,1.8,5.7,3.5,8.3,5.6c2.9,2.4,5.5,5.2,8.2,7.9c2.1,2.1,2.5,4.7,1.8,7.5
		c-1.9,7.6-6.8,12.2-14.1,14.2c-8.5,2.3-16.7,0.7-24.6-3.1c-1.3-0.6-2.5-2-3.3-3.3c-1-1.7-0.2-4.1,1.5-4.9c0.5-0.2,1.4,0.2,2,0.5
		c3.4,1.6,6.6,3.7,10.1,4.6c7.6,2,13-2.1,12.8-10c-0.1-5.5-1.6-11-2.5-16.4c-0.1-0.7-0.4-1.4-0.6-2.1
		C261.7,92.8,261.9,92.6,262,92.5z"/>
	<path d="M188.5,134.9c5.4,2.1,5.4,2.1,6.3,0.3c-2.2-2.2-4.7-4-6.2-6.4c-4.2-6.6-8.1-13.4-12-20.2c-0.9-1.6-1-3.7-1.4-5.4
		c-1,1.1-1,1.1,0.9,8.5c-3.2-1.8-4.5-7.3-2.4-10.2c1-1.5,2.8-1.9,4.7-0.6c2.3,1.5,4.5,3.2,6.5,5.2c5.6,5.8,9.9,12.4,11.9,20.2
		c0.6,2.5,0.7,5.3,0.4,7.8c-0.6,4-3.2,4.9-6.5,2.6C189.8,136.2,189.2,135.5,188.5,134.9z"/>
</g>
<g>
	<path d="M45.1,59c0-1.3,0-2.7,0-4c-0.3-12,0.8-23.7,5.6-34.8C53.3,14.1,57,9,62.8,5.5c9.2-5.5,19.2-1.2,21.6,9.3
		c1.4,5.9,0.2,11.7-0.3,17.6c-0.8,8.9-1.2,17.8-1.8,26.8c0,0.4,0.1,0.8,0.1,0.8c3.4-4.5,6.7-9.5,10.5-13.9
		c7.8-8.9,16.5-16.9,27.6-21.5c3.6-1.5,7.6-2.5,11.5-2.8c7.7-0.6,11.8,4.1,10.9,11.7c-0.7,5.6-2.8,10.7-6.2,15.4
		c-7.6,10.6-15.2,21.2-22.7,32c-3.2,4.6-4,9.8-2.2,15.3c0.5,1.5,1.2,2,2.8,2c5.9-0.1,11.7,0.9,17.2,3.3c12.1,5.4,15.5,17,14.2,27.2
		c-0.8,6.1-5.3,9.2-11.5,8.5c-4.9-0.6-9.2-2.8-13.3-5.2c-7.6-4.5-15.8-5-24.3-3.6c-1.5,0.3-2.3,0.8-2.6,2.6
		c-0.3,1.5-1.2,3.2-2.3,4.3c-11.6,10.7-26.8,12.7-40.8,5.6c-3.7-1.9-6.5-4.3-6.2-9c0-0.4-0.5-1.1-0.9-1.4
		c-14.3-9-17.5-22.7-15.9-38.3c0.2-2-0.1-3.3-1.7-4.7c-6.1-5.2-11.6-11-16-17.8c-6-9.3-6.4-18.8-1.2-28.4c3.9-7.2,11.3-8.5,17.5-3.2
		c2.5,2.2,4.6,4.9,6.8,7.4c3.6,4.3,7.1,8.6,10.6,13c0.3,0.3,0.3,0.9,0.5,1.3C44.7,59.3,44.9,59.1,45.1,59z M35.9,75
		c0.2,0.1,0.4,0.2,0.6,0.3c-3.8,6.3-4.6,13.1-3.5,20.1c0.6,3.8,2,7.5,2.7,11.3c2.2,11.3,9.7,17.8,19.9,21.8c1.9,0.7,4,1.1,6,1.1
		c2.3,0,3.1-2.2,1.7-4c-3.4-4.3-4.7-9.2-4.1-14.6c0.7-6.4,3.4-12,7.2-17.1c1.4-2,3.1-3.8,4.7-5.7c0.2,0.1,0.3,0.2,0.5,0.3
		c-0.7,1.4-1.4,2.8-2.1,4.2c-2.8,6.2-5,12.4-5,19.4c0,6.9,7.8,15.9,16.3,13.5c2.9-0.8,6-1.4,8.8-2.4c6.2-2.2,12.4-3.2,18.9-2.2
		c6.2,0.9,12.3,1.8,17.7,5.6c2.3,1.6,5.2,2.5,8,3.4c3.1,1,4.4,0.1,4.7-3.1c0.8-7.9-2.9-18.6-12.4-22.2c-6.6-2.4-13.4-3.8-20.3-4.6
		c-1.8-0.2-3.7-0.4-5.5-0.6c0-0.2,0-0.4,0-0.5c1.4-0.3,2.8-0.5,4.3-0.8c-2.6-7.9-1.4-15,3.1-21.5c7.3-10.5,14.7-20.9,22.2-31.2
		c2.7-3.7,4.5-7.8,5.4-12.3c0.9-4.4-0.6-5.8-5.1-5.1c-4.8,0.8-9.1,2.7-13.1,5.3C105.8,41.6,95.7,51,89.3,63.8
		c-1.7,3.4-4.8,5.2-7.9,4.8c-3.1-0.4-5.3-2.8-6.1-6.9c-0.2-1-0.3-2.1-0.3-3.2c0-3.4,0-6.7,0.3-10.1c0.7-8.3,1.8-16.6,2.4-24.9
		c0.2-3-0.1-6.2-1-9c-1.4-4.7-5.2-6-9.5-3.7c-4.7,2.5-7.5,6.7-9.5,11.5c-5.5,13.2-6.6,27-4.1,41c0.8,4.7-0.4,8.7-2.4,13.1
		C45.5,70.3,40,64.4,34.8,58.3c-3.8-4.4-7.1-9.2-10.9-13.6c-4.4-5.1-7.2-4.4-9.5,1.8c-2.3,6.2-2.2,12,1.2,17.8
		c4,6.9,9.4,12.5,15.3,17.7C32.7,79.6,34.3,77.3,35.9,75z M85.3,132.1c-3.7,0.1-7.3,0.7-10.7,0.2c-2.9-0.4-5.1-0.8-7,2
		c-0.6,0.9-2.1,1.2-3.2,1.7c-0.5,0.2-1,0.4-1.4,0.5C70.9,137.2,78.5,136.4,85.3,132.1z"/>
	<path class="st0" d="M35.9,75c-1.6,2.3-3.2,4.6-5,7.1C25,76.9,19.7,71.2,15.6,64.4c-3.4-5.8-3.6-11.7-1.2-17.8
		c2.3-6.2,5.1-6.9,9.5-1.8c3.8,4.4,7.1,9.2,10.9,13.6c5.2,6.1,10.7,11.9,16.3,18.1c2-4.4,3.2-8.4,2.4-13.1c-2.5-14-1.3-27.8,4.1-41
		c2-4.7,4.8-8.9,9.5-11.5c4.3-2.3,8.1-1.1,9.5,3.7c0.9,2.9,1.2,6,1,9C77,31.9,76,40.2,75.2,48.5c-0.3,3.3-0.2,6.7-0.3,10.1
		c0,1.1,0.1,2.1,0.3,3.2c0.8,4.1,3,6.5,6.1,6.9c3.1,0.4,6.2-1.4,7.9-4.8c6.5-12.8,16.5-22.2,28.2-30.1c4-2.7,8.3-4.6,13.1-5.3
		c4.5-0.7,6,0.7,5.1,5.1c-0.9,4.5-2.7,8.5-5.4,12.3C122.7,56,115.3,66.4,108,76.9c-4.5,6.5-5.7,13.6-3.1,21.5
		c-1.5,0.3-2.9,0.5-4.3,0.8c0,0.2,0,0.4,0,0.5c1.8,0.2,3.7,0.4,5.5,0.6c6.9,0.7,13.7,2.1,20.3,4.6c9.5,3.5,13.2,14.3,12.4,22.2
		c-0.3,3.2-1.6,4.1-4.7,3.1c-2.7-0.9-5.7-1.8-8-3.4c-5.4-3.8-11.5-4.7-17.7-5.6c-6.5-0.9-12.8,0.1-18.9,2.2c-2.9,1-5.9,1.6-8.8,2.4
		c-8.5,2.3-16.3-6.7-16.3-13.5c0-6.9,2.2-13.2,5-19.4c0.6-1.4,1.4-2.8,2.1-4.2c-0.2-0.1-0.3-0.2-0.5-0.3c-1.6,1.9-3.2,3.7-4.7,5.7
		c-3.8,5.1-6.5,10.7-7.2,17.1c-0.6,5.4,0.7,10.3,4.1,14.6c1.4,1.8,0.6,4-1.7,4c-2,0-4.1-0.4-6-1.1c-10.2-4-17.6-10.5-19.9-21.8
		c-0.7-3.8-2.1-7.5-2.7-11.3c-1.1-7-0.3-13.9,3.5-20.1C36.3,75.2,36.1,75.1,35.9,75z"/>
	<path class="st0" d="M85.3,132.1c-6.9,4.3-14.4,5.1-22.3,4.4c0.5-0.2,1-0.3,1.4-0.5c1.1-0.5,2.6-0.8,3.2-1.7c1.9-2.8,4.1-2.4,7-2
		C78,132.8,81.6,132.2,85.3,132.1z"/>
</g>
<g>
	<path d="M-38.5,62.4c15.2,12.2,19.9,34.5,11,51.9c-3.2,6.3-6.9,12.1-12.4,16.6c-3.9,3.2-8.1,5.7-13.5,5.4
		c-4.4-0.2-7.9-2.3-10.7-5.5c-1.2-1.3-2-1.3-3.5-0.7c-11.6,5.1-23.6,9-36.4,9.8c-18.1,1.1-32.7-5.8-44.5-19.2
		c-5.9-6.7-7-14.8-6.5-23.2c0.3-6,1.3-11.9,3.3-17.5c1.2-3.1,1.5-6.3,1.1-9.7c-0.7-7.4-0.2-14.7,1.9-21.8c1.6-5.4,5-9.6,8.8-13.5
		c3.6-3.8,7.2-7.7,10.6-11.7c4.2-4.9,9.7-7.7,15.7-9.4c7-2,14.2-2.7,21.4-1.8c3.1,0.4,6,2.1,9,3.1c1.1,0.4,2.4,0.9,3.6,0.7
		c9.5-1.4,18.7-0.9,27.5,3.5c11.4,5.8,23.1,23.4,14,41.5C-38.2,61.5-38.4,62-38.5,62.4z M-82.7,26.4c-2.4-3.7-5.1-6.2-9.2-6.7
		c-8.1-0.9-16.1-0.4-23.7,2.8c-3.1,1.3-6.1,3.5-8.6,5.9c-3.9,3.7-7.4,7.9-11,12c-2.1,2.5-4.5,4.9-5.9,7.8
		c-3.1,6.4-3.3,13.5-2.6,20.5c0.4,4.7,0,9.1-1.6,13.5c-1.9,5.3-2.8,10.8-3,16.4c-0.1,5.3,0.1,10.8,3.6,15.1
		c7.1,8.8,15.8,15.4,27.1,17.7c17.1,3.4,32.6-2,48.1-8.4c-0.6-2-1.3-3.8-1.8-5.6c-0.5-1.7-0.8-3.5-1.1-5.2c0.8,0.4,1,1,1.3,1.5
		c2.4,4.7,5.1,9.3,9.2,12.8c5.4,4.5,10.7,4.4,16.2,0c5.2-4.1,9-9.2,12-14.9c6.7-12.6,6.4-24.9-1.9-36.6c-6.1-8.6-13.6-8.9-20.6-1
		c-5.7,6.4-10.8,13.3-13.9,21.5c-0.2,0.4-0.9,0.7-1.4,1c-0.3-0.5-0.7-0.9-0.7-1.4c-0.1-0.6,0.1-1.2,0.3-1.8c0.9-3.1,1.7-6.1,2.6-9.3
		c-0.9-0.4-1.4-0.6-1.9-0.7c-5.8-1.5-11.1-4-15.8-7.7c-4.5-3.5-8-7.8-10.1-13.1c-0.2-0.5,0.2-1.3,0.3-1.9c0.6,0.1,1.3,0.1,1.9,0.4
		c0.6,0.3,1,0.9,1.5,1.4c6,5.6,12.2,10.9,19.7,14.6c5.3,2.6,5.9,2.4,8.9-2.4c4.3-6.8,9.6-12.4,18.1-13.5c0.6-0.1,1.3-0.8,1.7-1.4
		c3.2-5.2,4.4-10.8,2.7-16.7C-46.7,27.2-61.1,21-76,23.2c0.4,2.1,1.6,3.2,3.6,3.9c2.5,1,5,2.3,7.3,3.8c1.3,0.9,2.3,2.4,3.3,3.8
		c0.4,0.5,0.2,1.4,0.3,2.1c-0.7,0-1.4,0.2-2.1,0.1c-0.8-0.1-1.6-0.6-2.4-0.8c-9.7-2.9-19.4-4.7-29.3-1c-0.1,0.1-0.4-0.1-0.6-0.2
		C-93.1,29.8-88.3,27.8-82.7,26.4z"/>
	<path class="st0" d="M-82.7,26.4c-5.6,1.4-10.4,3.4-13.2,8.6c0.2,0.1,0.5,0.2,0.6,0.2c9.9-3.8,19.6-1.9,29.3,1
		c0.8,0.2,1.6,0.7,2.4,0.8c0.7,0.1,1.4,0,2.1-0.1c-0.1-0.7,0.1-1.6-0.3-2.1c-1-1.4-1.9-2.9-3.3-3.8c-2.3-1.5-4.7-2.9-7.3-3.8
		c-2-0.8-3.2-1.9-3.6-3.9c14.9-2.2,29.2,4,33.6,19.7c1.7,5.9,0.5,11.5-2.7,16.7c-0.4,0.6-1,1.3-1.7,1.4c-8.6,1.2-13.8,6.7-18.1,13.5
		c-3,4.8-3.5,5-8.9,2.4c-7.5-3.6-13.7-8.9-19.7-14.6c-0.5-0.5-0.9-1.1-1.5-1.4c-0.5-0.3-1.2-0.3-1.9-0.4c-0.1,0.7-0.5,1.4-0.3,1.9
		c2.2,5.3,5.7,9.6,10.1,13.1c4.7,3.7,10,6.2,15.8,7.7c0.5,0.1,1,0.4,1.9,0.7c-0.9,3.1-1.8,6.2-2.6,9.3c-0.2,0.6-0.3,1.2-0.3,1.8
		c0.1,0.5,0.5,1,0.7,1.4c0.5-0.3,1.3-0.5,1.4-1c3.1-8.2,8.2-15,13.9-21.5c7-7.9,14.5-7.7,20.6,1c8.3,11.7,8.6,24,1.9,36.6
		c-3,5.7-6.8,10.8-12,14.9c-5.5,4.4-10.8,4.5-16.2,0c-4.1-3.5-6.8-8-9.2-12.8c-0.3-0.5-0.5-1.1-1.3-1.5c0.4,1.8,0.7,3.5,1.1,5.2
		c0.5,1.8,1.1,3.6,1.8,5.6c-15.5,6.4-31,11.8-48.1,8.4c-11.4-2.3-20.1-8.9-27.1-17.7c-3.5-4.4-3.7-9.8-3.6-15.1
		c0.2-5.6,1.1-11.1,3-16.4c1.6-4.4,2-8.8,1.6-13.5c-0.7-7-0.5-14,2.6-20.5c1.4-2.9,3.7-5.4,5.9-7.8c3.5-4.1,7.1-8.3,11-12
		c2.5-2.4,5.4-4.6,8.6-5.9c7.5-3.2,15.6-3.7,23.7-2.8C-87.8,20.2-85.1,22.8-82.7,26.4z M-37.7,91.7c0.2,0,0.4,0,0.6,0
		c0.1-2.4,0.4-4.8,0.2-7.2c-0.3-4.1-2.8-7.3-5.8-8c-3.8-0.8-6.3,1.4-8.2,4.3c-5,7.8-7.3,16.4-6.6,25.7c0.4,4.8,2.4,9,6.5,11.9
		c0.6,0.4,1.3,0.8,1.9,1.1c0.1-0.8-0.1-1.3-0.4-1.5c-1.9-1.1-1.8-2.4-0.6-4.1c1.6-2.5,3.2-5.1,4.4-7.8c4-8.9,7.1-17.9,1.4-27.9
		c1.5,0.6,2.7,0.7,3.4,1.3C-37.4,82.8-38.1,87.4-37.7,91.7z M-107.5,104.8c11.3,7.7,25.9,7.2,29.9-1.1
		C-87.5,106.6-97.4,108.3-107.5,104.8z M-100.4,90.8c5.2,7.4,16.8,10.4,23.5,6C-85.5,97.1-93.4,95.8-100.4,90.8z"/>
	<path d="M-37.7,91.7c-0.5-4.2,0.3-8.9-3.3-12.1c-0.7-0.6-1.9-0.7-3.4-1.3c5.7,10.1,2.6,19.1-1.4,27.9c-1.2,2.7-2.7,5.3-4.4,7.8
		c-1.2,1.7-1.3,3,0.6,4.1c0.3,0.2,0.5,0.7,0.4,1.5c-0.6-0.4-1.3-0.7-1.9-1.1c-4-2.9-6.1-7.1-6.5-11.9c-0.7-9.3,1.6-17.9,6.6-25.7
		c1.9-2.9,4.3-5.1,8.2-4.3c3,0.6,5.5,3.9,5.8,8c0.2,2.4-0.1,4.8-0.2,7.2C-37.3,91.7-37.5,91.7-37.7,91.7z"/>
	<path d="M-107.5,104.8c10.1,3.4,20,1.7,29.9-1.1C-81.6,112-96.2,112.6-107.5,104.8z"/>
	<path d="M-100.4,90.8c7,5.1,14.9,6.3,23.5,6C-83.6,101.2-95.1,98.2-100.4,90.8z"/>
</g>
</svg>
